<svg id="Layer_1" data-name="Layer 1" xmlns="http://www.w3.org/2000/svg" viewBox="0 0 1024 245"><defs><style>.cls-1{fill:#ed1c24;}.cls-2{fill:#21409a;}.cls-3{fill:#fff;}</style></defs><path class="cls-1" d="M168.28,28.24q22.92-3.94,30.33,4.5c-.56,4.42-16.16,111.24-17.38,116.37-2.33,10.44-3.06,20.18-12.69,26-13.28,7-33.27,11.59-44.51,13.53-3.43.59-6,.93-7.4,1l-24.56,5c-.94.23-3,.68-5.77,1.16-9,1.54-25.58,3.37-38.08-1.17-13.13-4.21-7.34-25.2-6.91-28.9l3.55-20c.45-4.5,14.41-13.59,31.14-17.23.73-.15,1.44-.29,2.14-.41,19-3.28,24.58,7.61,23.25,15.33-.4,2.63-.77,5.24-1.12,7.79Q113,147.9,124.79,145l4.14-22h0c-.84.14,7.74-44.94,8.09-45q6-33.11,7.06-37.44,1.62-8.4,24.2-12.29"/><path class="cls-2" d="M87.19,200.91c-9.32,1.61-27,3.56-40.67-1.37-4.88-1.6-10.87-5.82-11.93-16.87-.58-6.16.58-12.48,1.22-15.89Q2,175.57,1.45,176a4.83,4.83,0,0,0-.83,2.49l-.19,2,0,.18q1.23,7.17,13.88,17.79,10.15,8.7,12.25,8.34a.57.57,0,0,0,.47-.44l0-.18a41.74,41.74,0,0,0,6.71-.8q-5.12,25.75-7.64,33c-.05.38-.11.75-.17,1.12l-.08.55q1,6,31,.79,25.55-4.41,26.7-12.36,2.65-7.57,7.21-28.29C89.75,200.45,88.57,200.67,87.19,200.91Z"/><path class="cls-2" d="M26.52,142.67c.24,0,.32-.24.26-.59q3.55-.3,15.36-2.3a34.75,34.75,0,0,1,9.54-7.54,81.27,81.27,0,0,1,23.21-8.88c.79-.18,1.59-.33,2.36-.46,13.29-2.3,20.54,1.68,24.28,5.42a17.34,17.34,0,0,1,1.8,2.13c.16-.92.3-1.82.46-2.74l19.66-3.95.19-1c0-1.85.67-6.65,3.89-24,1-5.37,2.05-10.86,2.88-15.06.4-2,.73-3.61,1-4.79q-10,2.34-20.72,5,4.56-30,5.53-37.9-7.55-8.25-30.48-4.3-22.57,3.9-24.19,12.29-1.35,4.74-8.28,44Q1.94,110.87,1,111.74a4.89,4.89,0,0,0-.83,2.49L0,115.34v1.08l0,.17q1.23,7.18,13.85,17.62Q24.42,143,26.52,142.67Z"/><path class="cls-2" d="M211.45,129.6q-1-1.95-22,1.4c-1.58,10.35-2.75,17.73-3.1,19.27-.3,1.31-.57,2.65-.83,3.94-1.61,7.84-3.27,15.91-9.76,22q42.44-10.37,49.56-14.83,4.89-3,5.3-6.86v-1.08l-.16-.87q-.81-4.73-9.21-12.65Q212.65,131.83,211.45,129.6Z"/><path class="cls-2" d="M171.24,179.57l-.13.08-.13.07c-12.77,6.71-32.17,11.66-46.06,14.06-3.15.54-5.87.92-7.58,1.05l-2,.4q-4.58,22.58-6.58,29.49a2.71,2.71,0,0,0-.52,1.17l-.12.38q1.06,6.14,31.17.93,25.54-4.41,26.88-12.39,3.19-9.5,9-38.11A26.3,26.3,0,0,1,171.24,179.57Z"/><path class="cls-2" d="M221,75.69q-8.61-8.16-9.68-10.14-.87-1.64-12.13-.25c-1.89,13-4.12,28.11-6.18,42q26.26-6.83,31.87-10.23c3.37-2,5.14-4.31,5.3-6.87l.25-1.66Q229.6,83.85,221,75.69Z"/><path class="cls-2" d="M249.17,169q15.56,3.63,17.76,16.45l.08.42.05,1.14a15.15,15.15,0,0,1-.1,2.74,30.17,30.17,0,0,1-1.84,7.64L262,203.67a90.71,90.71,0,0,1-10.87,13.5q-8.1,7.14-15.46,8.55a19.42,19.42,0,0,1-9.56-.51q-10.41-4.65-12.29-15.53l-.05-.27a24,24,0,0,1-.31-2.68,21.48,21.48,0,0,1-.05-3.58,24.5,24.5,0,0,1,4.54-12l8.74-11.7.92-1.3q6.93-7.23,13.88-8.57A41.74,41.74,0,0,1,249.17,169ZM252,81.43q1.49-5.57,13.86-64.38,3.06-7.28,22.42-10.61c2.73-.47,27.87-5,38.85-2.53,6.94,1.56,23.38,9.47-21.8,82.54-20.86,33.74-18.45,48.44-34.26,58.12-5,3.05-13.49,4.94-23.09,3.41-11.86-1.89-7.87-8.78-5.33-21.75Q250.17,89.06,252,81.43Z"/><path class="cls-2" d="M1019.6,16.45a24.63,24.63,0,0,0-17.15-14.4,41.82,41.82,0,0,0-10-1h0s-17.14,1.45-23.54,2.67l-.18,0c-5.66,1.07-22.87,4.31-28.51,19l-.57,1.49-.3,1.56c-7.16,37.11-8.8,45-9.14,46.42l-.05.17,0,.2c-.34,1.56-.87,4.19-1.6,7.92l-6.87-8a100.73,100.73,0,0,0-13.81-13.53l-.07,0-.08-.06c-12.33-9.63-24.9-14.71-37.36-15.12-1.3-.09-2.59-.13-3.86-.13a103.19,103.19,0,0,0-49.78,13.55c0-.77,0-1.33,0-1.86V52.5l-.56-2.19a24.08,24.08,0,0,0-10.77-14.37,42.13,42.13,0,0,0-12.29-5.08h-.07A56.7,56.7,0,0,0,779,28.9a44.11,44.11,0,0,0-5.66.36,19,19,0,0,0-13.91,9.53,29.25,29.25,0,0,0-2.25,5,95.56,95.56,0,0,0-2.69,9.7c-1.2,5.09-2.55,11.71-4.09,20.05-11.82-23.27-17.83-30.69-22.1-34.62A23.41,23.41,0,0,0,711.79,32c-4.68,0-19.06,6.21-21.26,7.68a27.11,27.11,0,0,0-8.17,9,69.29,69.29,0,0,0-5.81,13.6c-1.6,4.9-3.2,10.81-4.84,17.84a24.79,24.79,0,0,0-3.13-3.52l-.1-.1-.1-.09c-4.54-4.08-11.17-9.32-19.23-10.8-5.41-1-14.83.06-15.85.19-7.77,1-15.59,5.84-25.5,15.65C600.18,88.94,591.09,99.61,580,114q-1.42-2.19-2.85-4.17c7.09-9.56,10.56-18.72,10.56-27.76a30.28,30.28,0,0,0-.29-4.16,22,22,0,0,0-.85-4.6c-2.17-7.74-8.25-18-24.74-24C553.93,46.33,542.33,45,525.37,45a176,176,0,0,0-22.65,1.31,37.84,37.84,0,0,0,0-7c-2.49-17.61-15.87-29-34.08-29-9.85,0-16.78,4.85-23.91,16.73a26.67,26.67,0,0,0-3.23,7.84c-1.4,0-2.88-.07-4.47-.07-3,0-5.9.08-11.56.23h-.1c-12.66.4-22.63,2.37-30.48,6-10.57,4.93-17.58,13.31-19.77,23.61a38.55,38.55,0,0,0-.95,8.42c0,1.26.07,2.57.19,3.89l.08.91.18.9a27,27,0,0,0,.69,2.75,27.44,27.44,0,0,0,13.13,16.8,31.45,31.45,0,0,0,6.26,2.67c-.55,5.53-1,11.2-1.29,17-1.79,10.46-3,16.37-3.7,19.66a18.73,18.73,0,0,1-6.1-1.18c-.28-.81-.63-1.92-1-3.39-.77-3.33-1.37-6.27-1.79-8.73a30.68,30.68,0,0,1-.25-3.24,18.81,18.81,0,0,0,.11-2,18.47,18.47,0,0,0-.11-2v-.78l-.54-2.15c-2.19-8.76-9.42-13.65-12-15.35a34.36,34.36,0,0,0-19.54-6.36c-11.92,0-21.57,7.39-25.25,19.3a37.54,37.54,0,0,0-1.47,11.49c0,1.77.08,3.71.25,5.77.17,3.46.51,6.89,1,10.21.43,3,1,6,1.68,8.91l0,.17.05.17c3.8,14.81,10.24,24.42,19.66,29.36,4.83,2.83,9.71,5.67,14.51,8.46l.43.25.44.22c11.78,6,23.26,9,34.14,9,16.25,0,30.76-6.39,43.12-19,2.67-2.67,5.07-6.31,7.73-13.44a42,42,0,0,0,.37,5.13l.09.69.15.67c.26,1.24.57,2.52.91,3.82a45.59,45.59,0,0,0,18.9,27,53.06,53.06,0,0,0,30.38,9.26,40.87,40.87,0,0,0,7.21-.63,169.65,169.65,0,0,0,36.49-8.85,30,30,0,0,0,14.15,17c5.55,3.17,12.31,5.11,20.67,5.94l10.09,1,6.07-8.13,9.09-12.18a55.93,55.93,0,0,1,9.91-3.86h.05l0,0a72.84,72.84,0,0,1,21.73-3.36h.7l.08.65.43,1.42a33.37,33.37,0,0,0,3.08,7.32l.54.93.66.86c5.13,6.78,13.22,10.22,24,10.22,7.31,0,13.21-1.42,18-4.32,4-2.33,8.47-7,9.63-16a62.79,62.79,0,0,0,.43-6.42,41.81,41.81,0,0,0,8.16.8,27.11,27.11,0,0,0,9.14-1.38,19.08,19.08,0,0,0,13.09-18.07v-1.4c0-.72.19-5.53,3.46-28.69,0-.25.07-.49.1-.72,12.07,22.88,13.13,24.51,13.86,25.63v0l0,0c10.14,15.45,22.31,18.69,30.74,18.69a26.63,26.63,0,0,0,15.74-4.81,26,26,0,0,0,3-2.45,61.13,61.13,0,0,0,10.8,12.39l.17.15.17.14c5.89,4.91,13.67,9.15,23.78,13a98,98,0,0,0,34.37,6.61,69.59,69.59,0,0,0,28-5.51,60.79,60.79,0,0,0,22.46-17l.08-.1.09-.1c.83-1,1.65-2.13,2.47-3.31a32.28,32.28,0,0,0,13.91,12.77l.85.41.9.33a28.89,28.89,0,0,0,9.87,1.71,32.48,32.48,0,0,0,6-.57l.18,0,.18,0c6.63-1.39,13.08-5.06,19.17-10.92l.37-.36.35-.38a82,82,0,0,0,9.4-12.65l.63-1,.48-1.08,2.07-4.6.38-.84.29-.86a41.84,41.84,0,0,0,2.07-9.59,30.21,30.21,0,0,0,.13-4.54l0-.76,0-1-.16-1,0-.31a32.59,32.59,0,0,0-4.66-12.51c10.54-7.18,14.11-16.32,17.89-26a158.13,158.13,0,0,1,10.48-22.56c10.07-17.77,16.62-31.95,20-43.34C1022.8,33.45,1022.94,24.18,1019.6,16.45Z"/><path class="cls-3" d="M362.61,119.27V121a47.63,47.63,0,0,0,.43,5.89q.75,4.49,2.14,10.49,3,11.34,6.85,13.48a38.2,38.2,0,0,0,18.08,4.71q9.86,0,15-6.85,1.71-2.35,6.2-28.79.85-16.8,3.11-31.89a8.24,8.24,0,0,0,.21-2c-.21-1.07-1.14-1.61-2.78-1.61a5.47,5.47,0,0,0-1.07.11,32.85,32.85,0,0,1-3.53.21q-12.63,0-14.66-8.24a8.48,8.48,0,0,1-.33-1.17c-.07-.79-.1-1.54-.1-2.25a20.5,20.5,0,0,1,.53-4.6q3-14.55,33.28-15.52,8.13-.21,12.42-.21c6.77,0,11.22.44,13.32,1.33a11.78,11.78,0,0,1,7.46,8.87c1,4.71-2.2,9.2-3.77,11.41A12.1,12.1,0,0,1,445.23,79c-6.29,0-5.35,6.67-5.35,7a2.15,2.15,0,0,1,.21,1,25.37,25.37,0,0,1,.21,3.64q0,10.38-4.49,38-7.17,31.36-11.45,35.53Q411,177.81,394,177.81q-12.11,0-26-7.07-7.38-4.28-14.87-8.66-7.17-3.54-10.92-18.09c-.57-2.42-1-4.89-1.39-7.38-.43-2.86-.71-5.78-.86-8.78-.14-1.71-.21-3.24-.21-4.6a20.91,20.91,0,0,1,.64-6.1q2-6.73,8.13-6.74A16.76,16.76,0,0,1,358,113.7c2.71,1.79,4.24,3.39,4.6,4.82V119a.1.1,0,0,1,.11.11A.31.31,0,0,1,362.61,119.27Z"/><path class="cls-3" d="M701.73,54.13a15.06,15.06,0,0,0,4.87-2.2q3.25-2,5.19-2A6,6,0,0,1,716,52q6.42,5.77,19.48,31.78,11.76,22.91,20.86,45.37c.22.43.4.65.54.65q1.92,0,9.1-41.2t9.73-41.53a25.61,25.61,0,0,1,3.32-.21,39.49,39.49,0,0,1,9.63,1.39c6.07,1.57,9.45,3.75,10.17,6.53v.43q0,5.36-12.84,55c-8,30.75-11.56,53.76-11.56,54v.43q0,1.08-1.71,2.25a8.81,8.81,0,0,1-5.35,1.5q-8.77,0-15.73-10.6-1.61-2.46-18.41-34.45Q720.24,99,716.6,99h-.11c-2.49.21-4.21,1.67-5.13,4.38q-.86,2.69-1.5,5.46-.75,1.93-5,31.36-3.65,25.79-3.64,31.24v1.4c0,1-1.43,1.49-4.28,1.49a24,24,0,0,1-12-3.21A17.45,17.45,0,0,1,676.36,160l-.21-.74q4.17-26.22,8.35-52.33Q694.13,55.1,701.73,54.13Z"/><path class="cls-3" d="M849.89,123.64q3.63-1.19,8.45-2.46,30.93-2.67,50.08-9.85a7,7,0,0,1,2.68-.53q3.1,0,8.67,15.3-2.68,13.28-4.82,14-5.57,1.71-10.49,13.8-6.53,16.17-12.41,23.44-13.38,16-36.71,16a79.63,79.63,0,0,1-28-5.46q-12.21-4.59-18.62-9.95a45.29,45.29,0,0,1-14.13-23.86,54.8,54.8,0,0,1-1.18-5.89,71.73,71.73,0,0,1-.75-10.59,95.38,95.38,0,0,1,1.93-18.41q2.78-14.65,7.17-22.69,10.38-18.93,32.85-28.35a81.76,81.76,0,0,1,31.89-6.75c1,0,2,0,3,.11q13,.32,27.18,11.34A83.31,83.31,0,0,1,908,84l-3.43,4.82q-4.07,5.67-6.42,8.67c-.93.78-1.93,1.64-3,2.57v-.22a.44.44,0,0,0-.1-.32q-.87-3.53-19.69-14.23-13,1-18.62,2.67-4.83,1.4-13.6,6.53a70.67,70.67,0,0,0-16,12.09,94.71,94.71,0,0,0-10.27,14.56A32,32,0,0,0,812.43,137a31.49,31.49,0,0,0,.32,4.38,29.09,29.09,0,0,0,.64,3q2.9,11.88,14.61,19.9a46.48,46.48,0,0,0,26.92,8q12,0,21.4-14,7.06-10.27,7.06-17a13.5,13.5,0,0,0-.1-1.61c-.08-.35-.15-.68-.22-1q-7.38.11-21.08,2.78a29.46,29.46,0,0,1-4.28.32,18.62,18.62,0,0,1-11.88-4q-4.27-3.21-5.24-7.06a1.12,1.12,0,0,1-.22-.64v-.32a1.72,1.72,0,0,1,.22-1Q841.54,126.63,849.89,123.64Z"/><path class="cls-3" d="M945.75,140.71q10.46,2.67,11.94,12.08l0,.31,0,.83a12.75,12.75,0,0,1-.07,2,23.84,23.84,0,0,1-1.24,5.6l-2.07,4.61a65.92,65.92,0,0,1-7.31,9.91q-5.45,5.24-10.4,6.27a12,12,0,0,1-6.43-.37,14.44,14.44,0,0,1-8.26-11.4l0-.2c-.1-.68-.17-1.34-.21-2a16.56,16.56,0,0,1,0-2.63,19.07,19.07,0,0,1,3-8.79l5.88-8.59.62-1q4.66-5.31,9.34-6.29A25.15,25.15,0,0,1,945.75,140.71Zm1.9-64.31q1-4.08,9.32-47.26,2.06-5.34,15.08-7.79c1.83-.35,18.75-3.67,26.13-1.86,4.67,1.14,15.73,7-14.66,60.6-14,24.77-12.41,35.57-23,42.68-3.36,2.24-9.08,3.62-15.53,2.5-8-1.39-5.3-6.45-3.59-16Q946.42,82,947.65,76.4Z"/><path class="cls-3" d="M468.66,19.22c11.39,0,23,6.12,25.19,21.27.69,4.87-3.5,52.45-25.19,52.45-5.67,0-14.53-1.49-8.85-14.69,2.74-6.37,4.95-15.5-2.13-24.52-2.9-3.68-12-10.86-5.24-22.13S464,19.22,468.66,19.22"/><path class="cls-3" d="M669.55,161q-1.5-22.69-3.86-39.06Q664,111.12,661.84,103q-2.57-10.6-5.46-13.27c-4.92-4.43-9.19-7.11-12.12-7.11l-5,.06c-10.55.11-24.14,15-45.9,43.43q-9.61,12.6-16.79,23.16a1,1,0,0,0,0-.1l-.1-.43a90.74,90.74,0,0,0-11-24.29q-6.32-9.94-12.62-14.23,17-16.27,17-28.15a11.59,11.59,0,0,0-.21-2.24,4.84,4.84,0,0,0-.22-1.5q-2.15-8-13.69-12.2-8.56-3.21-30.29-3.21-19.14,0-30.42,3.69c-2.19,8.34-5.53,16.8-10.42,22.43a21.09,21.09,0,0,1-8.08,6q-6.9,32.63-13.68,67.84a24.72,24.72,0,0,0,.21,3.21c.21,1,.46,2,.75,3.1a27.35,27.35,0,0,0,11.61,16.64A35.18,35.18,0,0,0,495.62,192a23.19,23.19,0,0,0,4.49-.43q23.65-2.78,49.45-14.66a105.89,105.89,0,0,0,15-8.32q-6.66,12-8.43,20a21.61,21.61,0,0,0-.21,3,11.54,11.54,0,0,0,.1,1.6c.07.36.15.71.22,1.07q2.46,9.53,19.69,11.24l11-14.77q5.57-4.17,17.12-7.71a90.5,90.5,0,0,1,27.08-4.17,76.51,76.51,0,0,1,17.87,2q-.21,2.58-.21,4.71a39.56,39.56,0,0,0,.42,6.1c.15.79.25,1.47.33,2a15.84,15.84,0,0,0,1.39,3.42q2.34,3.1,9.73,3.1c4,0,7-.6,8.89-1.82.85-.42,1.28-3.78,1.28-10.06S670.4,173.05,669.55,161Zm-164-76.68a66.37,66.37,0,0,1,23.55-4.81q9.74,0,10.8,4.06l.11.75v.21q0,12-14.55,18.52-10.07,4.71-25,6.31Zm41.31,58.32q0,4.81-5.35,10.81a31.16,31.16,0,0,1-10.38,8q-14.34,6.63-20.87,6.63a20.91,20.91,0,0,1-15.62-6.63,9.39,9.39,0,0,1-1.39-3,7.53,7.53,0,0,1-.33-1.28c-.07-.93-.1-1.93-.1-3q0-5.88,2.67-15.19,20.55-7.81,33.93-7.82a20.92,20.92,0,0,1,8.56,1.5q7.49,3,8.67,7.92l.21.86Zm98.59,7.76q0,1.94-6.74,6.1l-31.79,2q7.71-15.42,12.52-22.48,9.21-12.84,17.45-12.84a10.27,10.27,0,0,1,4.28,1c.35.14.71,1,1.07,2.56q.42,1.83,1,5.14c.36,2.21.71,5,1.07,8.24.71,6.42,1.11,9.74,1.18,9.95Z"/></svg>