<svg id="Layer_1" data-name="Layer 1" xmlns="http://www.w3.org/2000/svg" viewBox="0 0 1024 1024"><defs><style>.cls-1{fill:#ed1c24;}.cls-2{fill:#21409a;}</style></defs><path class="cls-1" d="M513.11,222.91q69.76-12,92.31,13.69c-1.7,13.46-49.18,338.54-52.9,354.12-7.1,31.78-9.31,61.43-38.62,79.06C473.49,691,412.64,705.06,378.45,711c-10.43,1.8-18.38,2.84-22.51,3.09L281.2,729.14c-2.88.69-9.09,2.07-17.57,3.53-27.25,4.7-77.84,10.26-115.89-3.56-39.95-12.8-22.34-76.7-21-88l10.83-60.8c1.37-13.71,43.83-41.37,94.76-52.43,2.23-.48,4.39-.9,6.5-1.26,57.76-10,74.79,23.15,70.75,46.66-1.19,8-2.35,15.94-3.41,23.71q38.87-10,74.63-18.91l12.6-66.9h0c-2.53.44,23.55-136.73,24.64-137q18.27-100.78,21.48-114,4.92-25.53,73.64-37.38"/><path class="cls-2" d="M266.34,748.38c-28.36,4.89-82.09,10.83-123.76-4.19-14.87-4.85-33.1-17.71-36.3-51.31-1.79-18.75,1.76-38,3.69-48.39Q7.25,671.27,5.42,672.59a14.78,14.78,0,0,0-2.53,7.57l-.59,6.13.09.54Q6.17,708.67,44.64,741q30.9,26.49,37.29,25.38A1.73,1.73,0,0,0,83.35,765l-.1-.53q6,.06,20.43-2.43Q88.13,840.43,80.43,862.6L79.92,866l-.26,1.69q3.14,18.11,94.21,2.4,77.76-13.43,81.28-37.61,8.05-23.07,21.94-86.1C274.13,747,270.53,747.65,266.34,748.38Z"/><path class="cls-2" d="M81.71,571.12c.71-.12,1-.72.79-1.78q10.8-.9,46.74-7,9.15-11.31,29-23c20.58-12,45.66-21.61,70.62-27,2.41-.53,4.82-1,7.17-1.4,40.44-7,62.5,5.13,73.89,16.51a54.06,54.06,0,0,1,5.49,6.46c.47-2.77.91-5.51,1.39-8.31l59.84-12,.56-3c.07-5.62,2.06-20.24,11.84-73,3-16.35,6.24-33.07,8.78-45.85,1.22-6.09,2.22-11,3-14.57q-30.32,7.14-63.08,15.35,13.88-91.26,16.85-115.35-23-25.11-92.76-13.07-68.7,11.85-73.63,37.38-4.1,14.43-25.19,133.79Q6.87,474.34,4.05,477a14.7,14.7,0,0,0-2.54,7.57L1,488l0,3.29.09.53q3.76,21.84,42.16,53.61Q75.32,572.24,81.71,571.12Z"/><path class="cls-2" d="M644.48,531.36q-3.19-5.94-67,4.27c-4.79,31.5-8.35,53.94-9.42,58.63-.9,4-1.73,8.06-2.54,12-4.89,23.86-9.94,48.4-29.69,66.87Q665,641.59,686.66,628q14.88-9.15,16.14-20.89l0-3.28-.46-2.67q-2.48-14.38-28-38.5Q648.12,538.15,644.48,531.36Z"/><path class="cls-2" d="M522.12,683.44l-.4.24-.41.21c-38.85,20.42-97.87,35.49-140.15,42.78-9.58,1.65-17.87,2.8-23.07,3.21l-5.93,1.2q-13.92,68.7-20,89.75a8.49,8.49,0,0,0-1.58,3.56l-.34,1.16q3.21,18.65,94.83,2.84,77.76-13.42,81.8-37.7,9.72-28.91,27.27-116A82.53,82.53,0,0,1,522.12,683.44Z"/><path class="cls-2" d="M673.49,367.29Q647.27,342.48,644,336.44q-2.67-4.95-36.91-.75c-5.76,39.41-12.54,85.54-18.83,127.89q80-20.77,97-31.13,15.4-9.24,16.15-20.89l.77-5.07Q699.71,392.12,673.49,367.29Z"/><path class="cls-2" d="M759.29,651.3q47.31,11.06,54.05,50.06l.22,1.28.16,3.46a47,47,0,0,1-.31,8.35,91.65,91.65,0,0,1-5.6,23.24l-9.37,19.08Q781.39,782,765.35,797.85q-24.63,21.72-47,26-16.12,2.79-29.09-1.53-31.71-14.18-37.41-47.26l-.14-.84a74.68,74.68,0,0,1-1-8.13,65.27,65.27,0,0,1-.13-10.9,74.72,74.72,0,0,1,13.8-36.44L691,683.17l2.81-4q21.09-22,42.22-26.06A123.71,123.71,0,0,1,759.29,651.3Zm8.6-266.54q4.5-16.92,42.19-195.91,9.27-22.12,68.22-32.29c8.3-1.44,84.83-15.2,118.21-7.71,21.15,4.75,71.17,28.84-66.33,251.2C866.7,502.72,874.05,547.47,825.93,576.93c-15.17,9.28-41.06,15-70.26,10.37-36.09-5.77-24-26.72-16.22-66.19Q762.28,408,767.89,384.76Z"/></svg>